<?xml version="1.0" encoding="UTF-8" standalone="no"?>
<!DOCTYPE svg PUBLIC "-//W3C//DTD SVG 1.1//EN" "http://www.w3.org/Graphics/SVG/1.1/DTD/svg11.dtd">
<svg width="100%" height="100%" viewBox="0 0 2560 1280" version="1.1" xmlns="http://www.w3.org/2000/svg" xmlns:xlink="http://www.w3.org/1999/xlink" xml:space="preserve" xmlns:serif="http://www.serif.com/" style="fill-rule:evenodd;clip-rule:evenodd;stroke-linejoin:round;stroke-miterlimit:2;">
    <g transform="matrix(1,0,0,1,0,-2122.79)">
        <g id="TechNobo-TroubleChute" serif:id="TechNobo/TroubleChute" transform="matrix(3.74135,0,0,3.71301,1610.3,-2415.32)">
            <rect x="-430.405" y="1222.22" width="684.244" height="344.734" style="fill:none;"/>
            <clipPath id="_clip1">
                <rect x="-430.405" y="1222.22" width="684.244" height="344.734"/>
            </clipPath>
            <g clip-path="url(#_clip1)">
                <g transform="matrix(0.480007,0,0,0.483671,-613.88,1234.59)">
                    <g transform="matrix(288,0,0,288,382.233,312.268)">
                        <path d="M0.188,-0L0.188,-0.5L0,-0.5L0,-0.688L0.563,-0.688L0.563,-0.5L0.375,-0.5L0.375,-0L0.188,-0Z" style="fill:white;fill-rule:nonzero;"/>
                    </g>
                    <g transform="matrix(288,0,0,288,562.233,312.268)">
                        <path d="M0,-0L0,-0.688L0.563,-0.688L0.563,-0.5L0.188,-0.5L0.188,-0.438L0.563,-0.438L0.563,-0.25L0.188,-0.25L0.188,-0.188L0.563,-0.188L0.563,-0L0,-0Z" style="fill:white;fill-rule:nonzero;"/>
                    </g>
                    <g transform="matrix(288,0,0,288,742.233,312.268)">
                        <path d="M0,-0L0,-0.688L0.563,-0.688L0.563,-0.5L0.188,-0.5L0.188,-0.188L0.563,-0.188L0.563,-0L0,-0Z" style="fill:white;fill-rule:nonzero;"/>
                    </g>
                    <g transform="matrix(288,0,0,288,922.233,312.268)">
                        <path d="M0.563,0.188L0.375,-0L0.375,-0.25L0.188,-0.25L0.188,-0L0,-0L0,-0.688L0.188,-0.688L0.188,-0.438L0.375,-0.438L0.375,-0.688L0.563,-0.688L0.563,0.188Z" style="fill:white;fill-rule:nonzero;"/>
                    </g>
                    <g id="N1" transform="matrix(0.350493,0,0,0.350493,940.828,-243.977)">
                        <path d="M460.509,937.461L460.509,1608.16L615.959,1608.16L615.959,1325.92L944.241,1671.69L944.241,1001L788.78,1001L788.78,1283.34L460.509,937.461ZM589.768,1001L731.575,1149.26L731.575,1001L589.768,1001Z" style="fill:white;"/>
                    </g>
                    <g transform="matrix(0.326111,0,0,0.326111,962.102,-212.17)">
                        <path d="M1000.6,1484.9L1118.96,1608.15L1000.6,1608.15L1000.6,1484.9ZM1000.6,1399.03L1000.6,1001L1459.49,1001L1459.49,1608.15L1201.41,1608.15L1000.6,1399.03ZM1303.61,1156.78L1156.48,1156.78L1156.48,1452.37L1303.61,1452.37L1303.61,1156.78Z" style="fill:white;"/>
                    </g>
                    <g transform="matrix(288,0,0,288,1462.23,312.268)">
                        <path d="M0.313,-0.188L0.25,-0.25L0.188,-0.25L0.188,-0.188L0.313,-0.188ZM0.375,-0.438L0.375,-0.5L0.188,-0.5L0.188,-0.438L0.375,-0.438ZM0,-0L0,-0.688L0.563,-0.688L0.563,-0.25L0.5,-0.25L0.562,-0.188L0.563,0L0,-0Z" style="fill:white;fill-rule:nonzero;"/>
                    </g>
                    <g transform="matrix(0.326111,0,0,0.326111,1322.1,-212.17)">
                        <path d="M1000.6,1484.9L1118.96,1608.15L1000.6,1608.15L1000.6,1484.9ZM1000.6,1399.03L1000.6,1001L1459.49,1001L1459.49,1608.15L1201.41,1608.15L1000.6,1399.03ZM1303.61,1156.78L1156.48,1156.78L1156.48,1452.37L1303.61,1452.37L1303.61,1156.78Z" style="fill:white;"/>
                    </g>
                    <g transform="matrix(200,0,0,200,382.233,583.323)">
                        <path d="M0.488,-0.684L0.488,-0.586L0.293,-0.586L0.293,-0L0.195,-0L0.195,-0.586L0,-0.586L0,-0.684L0.488,-0.684Z" style="fill:white;fill-rule:nonzero;"/>
                    </g>
                    <g transform="matrix(200,0,0,200,499.42,583.323)">
                        <path d="M0.244,-0.684C0.298,-0.684 0.344,-0.665 0.382,-0.626C0.42,-0.588 0.439,-0.542 0.439,-0.488C0.439,-0.434 0.42,-0.388 0.382,-0.35C0.353,-0.321 0.319,-0.303 0.28,-0.296L0.451,-0L0.338,-0L0.169,-0.293L0.098,-0.293L0.098,-0L0,-0L0,-0.684L0.244,-0.684ZM0.244,-0.586L0.098,-0.586L0.098,-0.391L0.244,-0.391C0.271,-0.391 0.294,-0.4 0.313,-0.419C0.332,-0.438 0.342,-0.461 0.342,-0.488C0.342,-0.515 0.332,-0.538 0.313,-0.557C0.294,-0.576 0.271,-0.586 0.244,-0.586Z" style="fill:white;fill-rule:nonzero;"/>
                    </g>
                    <g transform="matrix(200,0,0,200,606.842,583.323)">
                        <path d="M0.342,-0C0.247,-0 0.167,-0.033 0.1,-0.1C0.033,-0.167 0,-0.247 0,-0.342C0,-0.436 0.033,-0.517 0.1,-0.583C0.167,-0.65 0.247,-0.684 0.342,-0.684C0.436,-0.684 0.517,-0.65 0.583,-0.583C0.65,-0.517 0.684,-0.436 0.684,-0.342C0.684,-0.247 0.65,-0.167 0.583,-0.1C0.517,-0.033 0.436,-0 0.342,-0ZM0.342,-0.586C0.274,-0.586 0.217,-0.562 0.169,-0.514C0.122,-0.467 0.098,-0.409 0.098,-0.342C0.098,-0.274 0.122,-0.217 0.169,-0.169C0.217,-0.122 0.274,-0.098 0.342,-0.098C0.409,-0.098 0.467,-0.122 0.514,-0.169C0.562,-0.217 0.586,-0.274 0.586,-0.342C0.586,-0.409 0.562,-0.467 0.514,-0.514C0.467,-0.562 0.409,-0.586 0.342,-0.586Z" style="fill:white;fill-rule:nonzero;"/>
                    </g>
                    <g transform="matrix(200,0,0,200,763.092,583.323)">
                        <path d="M0,-0.293L0,-0.684L0.098,-0.684L0.098,-0.293C0.098,-0.239 0.117,-0.193 0.155,-0.155C0.193,-0.117 0.239,-0.098 0.293,-0.098C0.347,-0.098 0.393,-0.117 0.431,-0.155C0.469,-0.193 0.488,-0.239 0.488,-0.293L0.488,-0.684L0.586,-0.684L0.586,-0.293C0.586,-0.212 0.557,-0.143 0.5,-0.086C0.443,-0.029 0.374,-0 0.293,-0C0.212,-0 0.143,-0.029 0.086,-0.086C0.029,-0.143 0,-0.212 0,-0.293Z" style="fill:white;fill-rule:nonzero;"/>
                    </g>
                    <g transform="matrix(200,0,0,200,899.811,583.323)">
                        <path d="M0.244,-0.684C0.298,-0.684 0.344,-0.665 0.382,-0.626C0.42,-0.588 0.439,-0.542 0.439,-0.488C0.439,-0.434 0.42,-0.388 0.382,-0.35C0.379,-0.347 0.376,-0.344 0.374,-0.342C0.376,-0.339 0.379,-0.336 0.382,-0.333C0.42,-0.295 0.439,-0.249 0.439,-0.195C0.439,-0.141 0.42,-0.095 0.382,-0.057C0.344,-0.019 0.298,-0 0.244,-0L0,-0L0,-0.684L0.244,-0.684ZM0.098,-0.293L0.098,-0.098L0.244,-0.098C0.271,-0.098 0.294,-0.107 0.313,-0.126C0.332,-0.145 0.342,-0.168 0.342,-0.195C0.342,-0.222 0.332,-0.245 0.313,-0.264C0.294,-0.283 0.271,-0.293 0.244,-0.293L0.098,-0.293ZM0.244,-0.586L0.098,-0.586L0.098,-0.391L0.244,-0.391C0.271,-0.391 0.294,-0.4 0.313,-0.419C0.332,-0.438 0.342,-0.461 0.342,-0.488C0.342,-0.515 0.332,-0.538 0.313,-0.557C0.294,-0.576 0.271,-0.586 0.244,-0.586Z" style="fill:white;fill-rule:nonzero;"/>
                    </g>
                    <g transform="matrix(200,0,0,200,1007.23,583.323)">
                        <path d="M0.098,-0.098L0.439,-0.098L0.439,-0L0,-0L0,-0.684L0.098,-0.684L0.098,-0.098Z" style="fill:white;fill-rule:nonzero;"/>
                    </g>
                    <g transform="matrix(200,0,0,200,1114.65,583.323)">
                        <path d="M0.391,-0.684L0.391,-0.586L0.098,-0.586L0.098,-0.391L0.391,-0.391L0.391,-0.293L0.098,-0.293L0.098,-0.098L0.391,-0.098L0.391,-0L0,-0L0,-0.684L0.391,-0.684Z" style="fill:white;fill-rule:nonzero;"/>
                    </g>
                    <g transform="matrix(182,0,0,182,1212.31,583.323)">
                        <path d="M0.586,-0.537L0.586,-0.488L0.391,-0.488L0.391,-0.537C0.391,-0.57 0.374,-0.586 0.342,-0.586L0.244,-0.586C0.212,-0.586 0.195,-0.57 0.195,-0.537L0.195,-0.244C0.195,-0.212 0.212,-0.195 0.244,-0.195L0.342,-0.195C0.374,-0.195 0.391,-0.212 0.391,-0.244L0.391,-0.293L0.586,-0.293L0.586,-0.244C0.586,-0.081 0.505,-0 0.342,-0L0.244,-0C0.081,-0 0,-0.081 0,-0.244L0,-0.537C0,-0.7 0.081,-0.781 0.244,-0.781L0.342,-0.781C0.505,-0.781 0.586,-0.7 0.586,-0.537Z" style="fill:white;fill-rule:nonzero;"/>
                    </g>
                    <g transform="matrix(182,0,0,182,1336.73,583.323)">
                        <path d="M0.195,-0.293L0.195,-0L0,-0L0,-0.781L0.195,-0.781L0.195,-0.488L0.391,-0.488L0.391,-0.781L0.586,-0.781L0.586,-0L0.391,-0L0.391,-0.293L0.195,-0.293Z" style="fill:white;fill-rule:nonzero;"/>
                    </g>
                    <g transform="matrix(182,0,0,182,1461.14,583.323)">
                        <path d="M0.391,-0.244L0.391,-0.781L0.586,-0.781L0.586,-0.244C0.586,-0.081 0.505,-0 0.342,-0L0.244,-0C0.081,-0 0,-0.081 0,-0.244L0,-0.781L0.195,-0.781L0.195,-0.244C0.195,-0.212 0.212,-0.195 0.244,-0.195L0.342,-0.195C0.374,-0.195 0.391,-0.212 0.391,-0.244Z" style="fill:white;fill-rule:nonzero;"/>
                    </g>
                    <g transform="matrix(182,0,0,182,1585.55,583.323)">
                        <path d="M0.391,-0.586L0.391,-0L0.195,-0L0.195,-0.586L0,-0.586L0,-0.781L0.586,-0.781L0.586,-0.586L0.391,-0.586Z" style="fill:white;fill-rule:nonzero;"/>
                    </g>
                    <g transform="matrix(182,0,0,182,1709.97,583.323)">
                        <path d="M0.195,-0.195L0.537,-0.195L0.537,-0L0,-0L0,-0.781L0.537,-0.781L0.537,-0.586L0.195,-0.586L0.195,-0.488L0.488,-0.488L0.488,-0.293L0.195,-0.293L0.195,-0.195Z" style="fill:white;fill-rule:nonzero;"/>
                    </g>
                </g>
            </g>
        </g>
    </g>
</svg>
